<?xml version="1.0" standalone="no"?>
<!DOCTYPE svg PUBLIC "-//W3C//DTD SVG 20010904//EN"
 "http://www.w3.org/TR/2001/REC-SVG-20010904/DTD/svg10.dtd">
<svg version="1.0" xmlns="http://www.w3.org/2000/svg"
 width="434.000000pt" height="434.000000pt" viewBox="0 0 434.000000 434.000000"
 preserveAspectRatio="xMidYMid meet">
<metadata>
Created by potrace 1.14, written by Peter Selinger 2001-2017
</metadata>
<g transform="translate(0.000000,434.000000) scale(0.100000,-0.100000)"
fill="#000000" stroke="none">
<path d="M660 2966 c-243 -54 -435 -193 -553 -397 -30 -52 -65 -137 -79 -189
-5 -19 -11 -44 -14 -55 -15 -53 -12 -253 5 -330 19 -88 74 -227 97 -246 8 -6
14 -17 14 -23 1 -24 122 -157 195 -212 81 -62 225 -129 322 -149 107 -23 337
-9 428 26 133 52 234 116 319 204 102 104 163 207 206 353 l22 72 512 0 c479
0 514 1 546 19 100 53 106 185 11 245 l-41 26 -515 0 c-404 0 -516 3 -519 13
-22 83 -53 172 -74 212 -78 148 -200 272 -348 351 -50 27 -167 70 -215 79 -65
13 -263 13 -319 1z m283 -246 c203 -47 380 -225 428 -430 62 -273 -97 -563
-363 -661 -200 -73 -428 -23 -589 130 -38 36 -69 69 -69 73 0 5 -11 26 -25 46
-28 43 -62 132 -71 189 -66 399 297 743 689 653z"/>
<path d="M3543 2860 c-64 -39 -63 -31 -63 -540 0 -509 0 -512 62 -550 62 -38
141 -19 178 43 19 31 20 53 20 502 0 449 -1 471 -20 502 -37 61 -116 81 -177
43z"/>
<path d="M2943 2560 c-62 -37 -63 -46 -63 -390 0 -345 3 -364 62 -400 62 -38
141 -19 178 43 19 30 20 52 20 352 0 300 -1 322 -20 352 -37 61 -116 81 -177
43z"/>
<path d="M3243 2430 c-60 -36 -63 -52 -63 -332 0 -233 2 -255 20 -285 50 -83
170 -83 220 0 18 29 20 52 20 280 0 276 -5 302 -62 337 -42 25 -94 26 -135 0z"/>
<path d="M4143 2430 c-60 -36 -63 -53 -63 -325 0 -274 5 -300 62 -335 62 -38
141 -19 178 43 18 29 20 52 20 280 0 276 -5 302 -62 337 -42 25 -94 26 -135 0z"/>
<path d="M3843 2210 c-55 -33 -63 -62 -63 -220 0 -158 8 -187 63 -220 62 -38
148 -15 182 49 21 41 22 286 1 336 -29 68 -118 95 -183 55z"/>
</g>
</svg>
